<svg width="101" height="112" viewBox="0 0 101 112" fill="none" xmlns="http://www.w3.org/2000/svg">
<path d="M78.0933 3C83.9016 3 91.3694 20.1779 96.348 35.6798C101.327 51.1818 94.2736 59.2986 85.5611 61.6561C85.5611 87.2134 70.2106 109 62.7427 109C62.7427 101.877 60.6683 90.1462 34.116 90.1462C7.56368 90.1462 3 71.2925 3 65.0079C3 58.7233 6.39934 57.9468 11.2976 57.0474M78.0933 3C72.285 3 65.6576 11.0443 65.6576 23.1107M78.0933 3C71.8701 16.8261 88.4653 29.3953 81.4123 35.6798M65.6576 23.1107C55.2856 23.1107 37.0202 31.6577 37.0202 47.4111M65.6576 23.1107C65.5193 30.6522 71.051 42.3834 76.8593 38.1937M37.0202 47.4111C37.0202 53.2767 15.8613 56.2095 11.2976 57.0474M37.0202 47.4111C39.7976 47.4912 49.448 46.4759 53.6154 45.6135M11.2976 57.0474C12.6805 58.9104 16.2762 66.7139 11.2976 69.6166M53.6154 45.6135C56.7104 44.973 59.5273 43.9547 61.0832 42.3834M53.6154 45.6135C54.1619 49.0058 53.6898 58.0474 49.1341 59.3043C44.5784 60.5613 41.7965 55.6733 41.6582 54.2767" stroke="#A78BFA" stroke-width="6"/>
</svg>
